<mxfile host="65bd71144e">
    <diagram id="Szi0RvQPMLwTubZaG_JY" name="Page-1">
        <mxGraphModel dx="608" dy="350" grid="1" gridSize="10" guides="1" tooltips="1" connect="1" arrows="1" fold="1" page="1" pageScale="1" pageWidth="827" pageHeight="1169" math="0" shadow="0">
            <root>
                <mxCell id="0"/>
                <mxCell id="1" parent="0"/>
                <mxCell id="2J5luhXPuMKB-7zzZdyg-4" value="Pracownik" style="shape=umlActor;verticalLabelPosition=bottom;verticalAlign=top;html=1;outlineConnect=0;" parent="1" vertex="1">
                    <mxGeometry x="60" y="150" width="30" height="60" as="geometry"/>
                </mxCell>
                <mxCell id="2J5luhXPuMKB-7zzZdyg-11" value="Widok dostępnych pojazdów" style="ellipse;whiteSpace=wrap;html=1;" parent="1" vertex="1">
                    <mxGeometry x="246" y="20" width="120" height="80" as="geometry"/>
                </mxCell>
                <mxCell id="2J5luhXPuMKB-7zzZdyg-12" value="Opiekun" style="shape=umlActor;verticalLabelPosition=bottom;verticalAlign=top;html=1;outlineConnect=0;" parent="1" vertex="1">
                    <mxGeometry x="60" y="685" width="30" height="60" as="geometry"/>
                </mxCell>
                <mxCell id="2J5luhXPuMKB-7zzZdyg-15" value="Wykonanie rezerwacju" style="ellipse;whiteSpace=wrap;html=1;" parent="1" vertex="1">
                    <mxGeometry x="320" y="100" width="120" height="80" as="geometry"/>
                </mxCell>
                <mxCell id="2J5luhXPuMKB-7zzZdyg-19" value="" style="endArrow=classic;html=1;exitX=0.5;exitY=0;exitDx=0;exitDy=0;exitPerimeter=0;" parent="1" source="2J5luhXPuMKB-7zzZdyg-12" target="2J5luhXPuMKB-7zzZdyg-4" edge="1">
                    <mxGeometry relative="1" as="geometry">
                        <mxPoint x="50" y="280" as="sourcePoint"/>
                        <mxPoint x="150" y="280" as="targetPoint"/>
                        <Array as="points"/>
                    </mxGeometry>
                </mxCell>
                <mxCell id="2J5luhXPuMKB-7zzZdyg-20" value="Extends" style="edgeLabel;resizable=0;html=1;align=center;verticalAlign=middle;" parent="2J5luhXPuMKB-7zzZdyg-19" connectable="0" vertex="1">
                    <mxGeometry relative="1" as="geometry"/>
                </mxCell>
                <mxCell id="2J5luhXPuMKB-7zzZdyg-23" value="" style="endArrow=none;html=1;entryX=0;entryY=0.5;entryDx=0;entryDy=0;" parent="1" source="2J5luhXPuMKB-7zzZdyg-4" target="2J5luhXPuMKB-7zzZdyg-11" edge="1">
                    <mxGeometry width="50" height="50" relative="1" as="geometry">
                        <mxPoint x="290" y="220" as="sourcePoint"/>
                        <mxPoint x="330" y="250" as="targetPoint"/>
                    </mxGeometry>
                </mxCell>
                <mxCell id="2J5luhXPuMKB-7zzZdyg-27" value="" style="endArrow=none;html=1;entryX=0;entryY=0.5;entryDx=0;entryDy=0;" parent="1" target="2J5luhXPuMKB-7zzZdyg-28" edge="1">
                    <mxGeometry width="50" height="50" relative="1" as="geometry">
                        <mxPoint x="90" y="180" as="sourcePoint"/>
                        <mxPoint x="280" y="270" as="targetPoint"/>
                    </mxGeometry>
                </mxCell>
                <mxCell id="2J5luhXPuMKB-7zzZdyg-28" value="Podgląd rezerwacji" style="ellipse;whiteSpace=wrap;html=1;" parent="1" vertex="1">
                    <mxGeometry x="320" y="210" width="120" height="80" as="geometry"/>
                </mxCell>
                <mxCell id="2J5luhXPuMKB-7zzZdyg-29" value="Zakończenie rezerwacji" style="ellipse;whiteSpace=wrap;html=1;" parent="1" vertex="1">
                    <mxGeometry x="460" y="160" width="120" height="80" as="geometry"/>
                </mxCell>
                <mxCell id="2J5luhXPuMKB-7zzZdyg-32" value="Modyfikacja rezerwacji" style="ellipse;whiteSpace=wrap;html=1;" parent="1" vertex="1">
                    <mxGeometry x="380" y="310" width="120" height="80" as="geometry"/>
                </mxCell>
                <mxCell id="2J5luhXPuMKB-7zzZdyg-37" value="Anulowanie rezerwacji" style="ellipse;whiteSpace=wrap;html=1;" parent="1" vertex="1">
                    <mxGeometry x="300" y="380" width="120" height="80" as="geometry"/>
                </mxCell>
                <mxCell id="2J5luhXPuMKB-7zzZdyg-42" value="" style="endArrow=none;html=1;entryX=0;entryY=0.5;entryDx=0;entryDy=0;" parent="1" target="2J5luhXPuMKB-7zzZdyg-43" edge="1">
                    <mxGeometry width="50" height="50" relative="1" as="geometry">
                        <mxPoint x="110" y="730" as="sourcePoint"/>
                        <mxPoint x="470" y="715" as="targetPoint"/>
                    </mxGeometry>
                </mxCell>
                <mxCell id="2J5luhXPuMKB-7zzZdyg-43" value="Podgląd listy pojazdów" style="ellipse;whiteSpace=wrap;html=1;" parent="1" vertex="1">
                    <mxGeometry x="390" y="675" width="120" height="80" as="geometry"/>
                </mxCell>
                <mxCell id="2J5luhXPuMKB-7zzZdyg-44" value="" style="endArrow=none;html=1;entryX=0;entryY=0.5;entryDx=0;entryDy=0;" parent="1" target="2J5luhXPuMKB-7zzZdyg-46" edge="1">
                    <mxGeometry width="50" height="50" relative="1" as="geometry">
                        <mxPoint x="110" y="710" as="sourcePoint"/>
                        <mxPoint x="550" y="660" as="targetPoint"/>
                    </mxGeometry>
                </mxCell>
                <mxCell id="2J5luhXPuMKB-7zzZdyg-45" value="" style="endArrow=none;html=1;entryX=0;entryY=0.5;entryDx=0;entryDy=0;" parent="1" target="2J5luhXPuMKB-7zzZdyg-47" edge="1">
                    <mxGeometry width="50" height="50" relative="1" as="geometry">
                        <mxPoint x="110" y="750" as="sourcePoint"/>
                        <mxPoint x="550" y="780" as="targetPoint"/>
                    </mxGeometry>
                </mxCell>
                <mxCell id="2J5luhXPuMKB-7zzZdyg-46" value="Zgłoszenie wykonania czynności" style="ellipse;whiteSpace=wrap;html=1;" parent="1" vertex="1">
                    <mxGeometry x="170" y="630" width="120" height="80" as="geometry"/>
                </mxCell>
                <mxCell id="2J5luhXPuMKB-7zzZdyg-47" value="Planowanie czynności" style="ellipse;whiteSpace=wrap;html=1;" parent="1" vertex="1">
                    <mxGeometry x="160" y="830" width="120" height="80" as="geometry"/>
                </mxCell>
                <mxCell id="2J5luhXPuMKB-7zzZdyg-48" value="" style="endArrow=none;html=1;entryX=0;entryY=0.5;entryDx=0;entryDy=0;" parent="1" target="2J5luhXPuMKB-7zzZdyg-49" edge="1">
                    <mxGeometry width="50" height="50" relative="1" as="geometry">
                        <mxPoint x="120" y="740" as="sourcePoint"/>
                        <mxPoint x="550" y="740" as="targetPoint"/>
                    </mxGeometry>
                </mxCell>
                <mxCell id="2J5luhXPuMKB-7zzZdyg-49" value="Zarządzanie dostępnością pojazdu" style="ellipse;whiteSpace=wrap;html=1;" parent="1" vertex="1">
                    <mxGeometry x="170" y="740" width="120" height="80" as="geometry"/>
                </mxCell>
                <mxCell id="2J5luhXPuMKB-7zzZdyg-50" value="" style="endArrow=none;html=1;entryX=0;entryY=0.5;entryDx=0;entryDy=0;" parent="1" target="2J5luhXPuMKB-7zzZdyg-51" edge="1">
                    <mxGeometry width="50" height="50" relative="1" as="geometry">
                        <mxPoint x="100" y="700" as="sourcePoint"/>
                        <mxPoint x="310" y="860" as="targetPoint"/>
                    </mxGeometry>
                </mxCell>
                <mxCell id="2J5luhXPuMKB-7zzZdyg-51" value="Podgląd statystyk dot. obsługiwanych pojazdów" style="ellipse;whiteSpace=wrap;html=1;" parent="1" vertex="1">
                    <mxGeometry x="144" y="540" width="146" height="80" as="geometry"/>
                </mxCell>
                <mxCell id="2J5luhXPuMKB-7zzZdyg-55" value="Admin" style="shape=umlActor;verticalLabelPosition=bottom;verticalAlign=top;html=1;outlineConnect=0;" parent="1" vertex="1">
                    <mxGeometry x="60" y="1090" width="30" height="60" as="geometry"/>
                </mxCell>
                <mxCell id="4" value="Podgląd statystyk dot. pracowników" style="ellipse;whiteSpace=wrap;html=1;" parent="1" vertex="1">
                    <mxGeometry x="316" y="1030" width="124" height="90" as="geometry"/>
                </mxCell>
                <mxCell id="2J5luhXPuMKB-7zzZdyg-62" value="" style="endArrow=classic;html=1;exitX=0.5;exitY=0;exitDx=0;exitDy=0;exitPerimeter=0;" parent="1" source="2J5luhXPuMKB-7zzZdyg-55" target="2J5luhXPuMKB-7zzZdyg-12" edge="1">
                    <mxGeometry relative="1" as="geometry">
                        <mxPoint x="90" y="830" as="sourcePoint"/>
                        <mxPoint x="190" y="830" as="targetPoint"/>
                        <Array as="points"/>
                    </mxGeometry>
                </mxCell>
                <mxCell id="2J5luhXPuMKB-7zzZdyg-63" value="Extends" style="edgeLabel;resizable=0;html=1;align=center;verticalAlign=middle;" parent="2J5luhXPuMKB-7zzZdyg-62" connectable="0" vertex="1">
                    <mxGeometry relative="1" as="geometry"/>
                </mxCell>
                <mxCell id="2J5luhXPuMKB-7zzZdyg-65" value="Dodawanie pojazdów" style="ellipse;whiteSpace=wrap;html=1;" parent="1" vertex="1">
                    <mxGeometry x="330" y="1140" width="120" height="80" as="geometry"/>
                </mxCell>
                <mxCell id="2J5luhXPuMKB-7zzZdyg-67" value="Dodawanie firm zewnętrznych" style="ellipse;whiteSpace=wrap;html=1;" parent="1" vertex="1">
                    <mxGeometry x="260" y="1230" width="120" height="80" as="geometry"/>
                </mxCell>
                <mxCell id="7" value="" style="endArrow=none;html=1;entryX=0.008;entryY=0.35;entryDx=0;entryDy=0;entryPerimeter=0;" parent="1" source="2J5luhXPuMKB-7zzZdyg-4" target="2J5luhXPuMKB-7zzZdyg-37" edge="1">
                    <mxGeometry width="50" height="50" relative="1" as="geometry">
                        <mxPoint x="250" y="430" as="sourcePoint"/>
                        <mxPoint x="430" y="480" as="targetPoint"/>
                    </mxGeometry>
                </mxCell>
                <mxCell id="8" value="" style="endArrow=none;html=1;" parent="1" source="2J5luhXPuMKB-7zzZdyg-32" target="2J5luhXPuMKB-7zzZdyg-4" edge="1">
                    <mxGeometry width="50" height="50" relative="1" as="geometry">
                        <mxPoint x="340" y="520" as="sourcePoint"/>
                        <mxPoint x="320" y="360" as="targetPoint"/>
                    </mxGeometry>
                </mxCell>
                <mxCell id="9" value="" style="endArrow=none;html=1;" parent="1" target="2J5luhXPuMKB-7zzZdyg-29" edge="1">
                    <mxGeometry width="50" height="50" relative="1" as="geometry">
                        <mxPoint x="100" y="180" as="sourcePoint"/>
                        <mxPoint x="370" y="430" as="targetPoint"/>
                    </mxGeometry>
                </mxCell>
                <mxCell id="10" value="" style="endArrow=none;html=1;exitX=-0.002;exitY=0.575;exitDx=0;exitDy=0;exitPerimeter=0;" parent="1" source="4" edge="1">
                    <mxGeometry width="50" height="50" relative="1" as="geometry">
                        <mxPoint x="460" y="1170" as="sourcePoint"/>
                        <mxPoint x="110" y="1110" as="targetPoint"/>
                    </mxGeometry>
                </mxCell>
                <mxCell id="11" value="" style="endArrow=none;html=1;exitX=0;exitY=0.5;exitDx=0;exitDy=0;" parent="1" source="2J5luhXPuMKB-7zzZdyg-65" edge="1">
                    <mxGeometry width="50" height="50" relative="1" as="geometry">
                        <mxPoint x="250" y="1240" as="sourcePoint"/>
                        <mxPoint x="110" y="1120" as="targetPoint"/>
                    </mxGeometry>
                </mxCell>
                <mxCell id="12" value="" style="endArrow=none;html=1;exitX=0;exitY=0;exitDx=0;exitDy=0;" parent="1" source="2J5luhXPuMKB-7zzZdyg-67" edge="1">
                    <mxGeometry width="50" height="50" relative="1" as="geometry">
                        <mxPoint x="210" y="1280" as="sourcePoint"/>
                        <mxPoint x="110" y="1140" as="targetPoint"/>
                    </mxGeometry>
                </mxCell>
                <mxCell id="17" value="Raport zdania pojazdu" style="ellipse;whiteSpace=wrap;html=1;" parent="1" vertex="1">
                    <mxGeometry x="160" y="930" width="120" height="80" as="geometry"/>
                </mxCell>
                <mxCell id="18" value="" style="endArrow=none;html=1;exitX=-0.017;exitY=0.4;exitDx=0;exitDy=0;exitPerimeter=0;" parent="1" source="17" edge="1">
                    <mxGeometry width="50" height="50" relative="1" as="geometry">
                        <mxPoint x="370" y="810" as="sourcePoint"/>
                        <mxPoint x="110" y="750" as="targetPoint"/>
                    </mxGeometry>
                </mxCell>
                <mxCell id="19" value="" style="endArrow=none;html=1;entryX=0;entryY=0.5;entryDx=0;entryDy=0;" parent="1" target="2J5luhXPuMKB-7zzZdyg-15" edge="1">
                    <mxGeometry width="50" height="50" relative="1" as="geometry">
                        <mxPoint x="100" y="173.92000000000002" as="sourcePoint"/>
                        <mxPoint x="320" y="160" as="targetPoint"/>
                    </mxGeometry>
                </mxCell>
                <mxCell id="20" value="Dokonanie wypożyczenia" style="ellipse;whiteSpace=wrap;html=1;" parent="1" vertex="1">
                    <mxGeometry x="170" y="400" width="120" height="80" as="geometry"/>
                </mxCell>
                <mxCell id="21" value="" style="endArrow=none;html=1;entryX=0;entryY=0;entryDx=0;entryDy=0;exitX=1;exitY=1;exitDx=0;exitDy=0;exitPerimeter=0;" parent="1" source="2J5luhXPuMKB-7zzZdyg-4" target="20" edge="1">
                    <mxGeometry width="50" height="50" relative="1" as="geometry">
                        <mxPoint x="79.03999999999999" y="205.13542219861927" as="sourcePoint"/>
                        <mxPoint x="290.00000000000006" y="418" as="targetPoint"/>
                    </mxGeometry>
                </mxCell>
                <mxCell id="23" value="" style="endArrow=classic;html=1;exitX=0.958;exitY=0.3;exitDx=0;exitDy=0;exitPerimeter=0;entryX=0.383;entryY=0.975;entryDx=0;entryDy=0;entryPerimeter=0;" parent="1" source="17" target="2J5luhXPuMKB-7zzZdyg-43" edge="1">
                    <mxGeometry relative="1" as="geometry">
                        <mxPoint x="350" y="880" as="sourcePoint"/>
                        <mxPoint x="450" y="880" as="targetPoint"/>
                    </mxGeometry>
                </mxCell>
                <mxCell id="24" value="&amp;lt;&amp;lt;include&amp;gt;&amp;gt;" style="edgeLabel;resizable=0;html=1;align=center;verticalAlign=middle;" parent="23" connectable="0" vertex="1">
                    <mxGeometry relative="1" as="geometry"/>
                </mxCell>
                <mxCell id="25" value="" style="endArrow=classic;html=1;entryX=0;entryY=1;entryDx=0;entryDy=0;" parent="1" source="2J5luhXPuMKB-7zzZdyg-47" target="2J5luhXPuMKB-7zzZdyg-43" edge="1">
                    <mxGeometry relative="1" as="geometry">
                        <mxPoint x="350" y="880" as="sourcePoint"/>
                        <mxPoint x="450" y="880" as="targetPoint"/>
                    </mxGeometry>
                </mxCell>
                <mxCell id="26" value="&amp;lt;&amp;lt;include&amp;gt;&amp;gt;" style="edgeLabel;resizable=0;html=1;align=center;verticalAlign=middle;" parent="25" connectable="0" vertex="1">
                    <mxGeometry relative="1" as="geometry"/>
                </mxCell>
                <mxCell id="27" value="" style="endArrow=classic;html=1;exitX=1;exitY=0.35;exitDx=0;exitDy=0;exitPerimeter=0;entryX=-0.008;entryY=0.7;entryDx=0;entryDy=0;entryPerimeter=0;" parent="1" source="2J5luhXPuMKB-7zzZdyg-49" target="2J5luhXPuMKB-7zzZdyg-43" edge="1">
                    <mxGeometry relative="1" as="geometry">
                        <mxPoint x="350" y="880" as="sourcePoint"/>
                        <mxPoint x="460" y="870" as="targetPoint"/>
                    </mxGeometry>
                </mxCell>
                <mxCell id="28" value="&amp;lt;&amp;lt;include&amp;gt;&amp;gt;" style="edgeLabel;resizable=0;html=1;align=center;verticalAlign=middle;" parent="27" connectable="0" vertex="1">
                    <mxGeometry relative="1" as="geometry"/>
                </mxCell>
                <mxCell id="29" value="" style="endArrow=classic;html=1;exitX=1.017;exitY=0.388;exitDx=0;exitDy=0;exitPerimeter=0;entryX=0;entryY=0;entryDx=0;entryDy=0;" parent="1" source="2J5luhXPuMKB-7zzZdyg-46" target="2J5luhXPuMKB-7zzZdyg-43" edge="1">
                    <mxGeometry relative="1" as="geometry">
                        <mxPoint x="320" y="880" as="sourcePoint"/>
                        <mxPoint x="480" y="880" as="targetPoint"/>
                    </mxGeometry>
                </mxCell>
                <mxCell id="30" value="&amp;lt;&amp;lt;include&amp;gt;&amp;gt;" style="edgeLabel;resizable=0;html=1;align=center;verticalAlign=middle;" parent="29" connectable="0" vertex="1">
                    <mxGeometry relative="1" as="geometry"/>
                </mxCell>
            </root>
        </mxGraphModel>
    </diagram>
</mxfile>